<svg width="137" height="40" viewBox="0 0 137 40" fill="none" xmlns="http://www.w3.org/2000/svg">
<rect x="0.698486" width="136" height="40" rx="8" fill="black"/>
<path fill-rule="evenodd" clip-rule="evenodd" d="M17.9692 8.94376C17.7164 9.21551 17.571 9.63377 17.571 10.1773V29.5093C17.571 30.0528 17.7164 30.471 17.9787 30.7333L18.0472 30.7912L28.8794 19.9591V19.7157L18.0377 8.88586L17.9692 8.94376Z" fill="url(#paint0_linear_6344_8739)"/>
<path fill-rule="evenodd" clip-rule="evenodd" d="M32.4827 23.5835L28.87 19.9696V19.7168L32.4839 16.1029L32.5618 16.1513L36.8361 18.5803C38.06 19.2702 38.06 20.4067 36.8361 21.1061L32.5618 23.535C32.5607 23.535 32.4827 23.5835 32.4827 23.5835Z" fill="url(#paint1_linear_6344_8739)"/>
<path fill-rule="evenodd" clip-rule="evenodd" d="M32.561 23.5359L28.8699 19.8436L17.9692 30.7443C18.3674 31.172 19.0373 31.2205 19.7864 30.8022L32.561 23.5359Z" fill="url(#paint2_linear_6344_8739)"/>
<path fill-rule="evenodd" clip-rule="evenodd" d="M32.5609 16.1525L19.7863 8.8956C19.0384 8.46789 18.3673 8.52578 17.9691 8.95349L28.8686 19.8436L32.5609 16.1525Z" fill="url(#paint3_linear_6344_8739)"/>
<path opacity="0.2" fill-rule="evenodd" clip-rule="evenodd" d="M32.483 23.4578L19.7958 30.6662C19.0869 31.0738 18.4548 31.0455 18.0472 30.6757L17.9786 30.7442L18.0472 30.8021C18.4548 31.1707 19.0869 31.2003 19.7958 30.7926L32.5704 23.5357L32.483 23.4578Z" fill="black"/>
<path opacity="0.12" fill-rule="evenodd" clip-rule="evenodd" d="M36.8352 20.9801L32.4735 23.4575L32.5515 23.5355L36.8258 21.1065C37.4377 20.7568 37.739 20.3008 37.739 19.8436C37.7 20.2618 37.3893 20.66 36.8352 20.9801Z" fill="black"/>
<path opacity="0.25" fill-rule="evenodd" clip-rule="evenodd" d="M19.7864 9.02201L36.8357 18.7081C37.3899 19.0188 37.7006 19.4265 37.749 19.8447C37.749 19.3887 37.4477 18.9314 36.8357 18.5817L19.7864 8.89558C18.5623 8.19613 17.571 8.77861 17.571 10.1775V10.304C17.571 8.90504 18.5623 8.332 19.7864 9.02201Z" fill="white"/>
<path d="M53.991 13.3636V15.0576H53.193V13.8536L53.452 14.1196H49.546L49.805 13.8536V15.0576H49.007V13.3636H53.991ZM49.371 13.3776C49.4877 13.303 49.5833 13.1933 49.658 13.0486C49.7327 12.904 49.791 12.722 49.833 12.5026C49.875 12.2833 49.9077 12.0103 49.931 11.6836L50.092 9.19163H53.389V13.4756H52.556V9.66763L52.822 9.94063H50.554L50.862 9.66763L50.729 11.6836C50.7057 12.015 50.6777 12.2856 50.645 12.4956C50.617 12.701 50.575 12.8736 50.519 13.0136C50.463 13.1536 50.3883 13.275 50.295 13.3776H49.371ZM56.8192 9.10763C57.2765 9.10763 57.6802 9.2173 58.0302 9.43663C58.3802 9.6513 58.6508 9.9523 58.8422 10.3396C59.0335 10.7223 59.1292 11.161 59.1292 11.6556C59.1292 12.1503 59.0335 12.5913 58.8422 12.9786C58.6508 13.3613 58.3802 13.6623 58.0302 13.8816C57.6802 14.0963 57.2765 14.2036 56.8192 14.2036C56.3618 14.2036 55.9582 14.0963 55.6082 13.8816C55.2628 13.6623 54.9922 13.3613 54.7962 12.9786C54.6048 12.5913 54.5092 12.1503 54.5092 11.6556C54.5092 11.161 54.6048 10.7223 54.7962 10.3396C54.9922 9.9523 55.2628 9.6513 55.6082 9.43663C55.9582 9.2173 56.3618 9.10763 56.8192 9.10763ZM56.8192 13.4406C57.1178 13.4406 57.3768 13.366 57.5962 13.2166C57.8155 13.0626 57.9835 12.8503 58.1002 12.5796C58.2215 12.309 58.2822 12.001 58.2822 11.6556C58.2822 11.3103 58.2215 11.0023 58.1002 10.7316C57.9835 10.461 57.8155 10.251 57.5962 10.1016C57.3768 9.94763 57.1178 9.87063 56.8192 9.87063C56.5205 9.87063 56.2615 9.94763 56.0422 10.1016C55.8228 10.251 55.6548 10.461 55.5382 10.7316C55.4215 11.0023 55.3632 11.3103 55.3632 11.6556C55.3632 12.001 55.4215 12.309 55.5382 12.5796C55.6548 12.8503 55.8228 13.0626 56.0422 13.2166C56.2615 13.366 56.5205 13.4406 56.8192 13.4406ZM64.1404 12.5026C64.1077 12.778 64.0097 13.0463 63.8464 13.3076C63.6877 13.5643 63.4544 13.779 63.1464 13.9516C62.843 14.1196 62.479 14.2036 62.0544 14.2036C61.6204 14.2036 61.2307 14.0986 60.8854 13.8886C60.5447 13.674 60.2764 13.3753 60.0804 12.9926C59.889 12.6053 59.7934 12.1596 59.7934 11.6556C59.7934 11.161 59.889 10.7223 60.0804 10.3396C60.2717 9.9523 60.5377 9.6513 60.8784 9.43663C61.2237 9.2173 61.6157 9.10763 62.0544 9.10763C62.451 9.10763 62.7964 9.1823 63.0904 9.33163C63.3844 9.48096 63.6177 9.68396 63.7904 9.94063C63.9677 10.1973 64.0797 10.4843 64.1264 10.8016H63.2934C63.2467 10.6243 63.1697 10.4656 63.0624 10.3256C62.9597 10.1856 62.822 10.076 62.6494 9.99663C62.4814 9.91263 62.283 9.87063 62.0544 9.87063C61.7744 9.87063 61.527 9.9453 61.3124 10.0946C61.1024 10.244 60.939 10.454 60.8224 10.7246C60.7057 10.9906 60.6474 11.301 60.6474 11.6556C60.6474 12.001 60.7034 12.309 60.8154 12.5796C60.932 12.8503 61.0977 13.0626 61.3124 13.2166C61.527 13.366 61.7744 13.4406 62.0544 13.4406C62.297 13.4406 62.507 13.394 62.6844 13.3006C62.8617 13.2026 63.0017 13.0836 63.1044 12.9436C63.207 12.8036 63.2724 12.6566 63.3004 12.5026H64.1404ZM66.9085 9.72363V14.1196H66.0755V9.72363H66.9085ZM64.5215 9.94063V9.19163H68.4555V9.94063H64.5215ZM70.73 12.9576L68.805 9.19163H69.708L71.199 12.1596L70.73 12.9576ZM70.968 12.0616L72.305 9.19163H73.187L70.849 14.1196H69.96L70.737 12.4886L70.968 12.0616ZM73.8741 9.19163H77.8571V14.1196H77.0241V9.63963L77.3321 9.94063H74.3921L74.7071 9.63963V14.1196H73.8741V9.19163ZM79.8272 14.1196H78.9942V9.19163H79.8272V14.1196ZM82.1652 9.19163H82.9982V14.1196H82.1652V9.19163ZM82.3472 11.9706H79.6452V11.2146H82.3472V11.9706ZM86.2069 9.10763C86.6642 9.10763 87.0679 9.2173 87.4179 9.43663C87.7679 9.6513 88.0385 9.9523 88.2299 10.3396C88.4212 10.7223 88.5169 11.161 88.5169 11.6556C88.5169 12.1503 88.4212 12.5913 88.2299 12.9786C88.0385 13.3613 87.7679 13.6623 87.4179 13.8816C87.0679 14.0963 86.6642 14.2036 86.2069 14.2036C85.7495 14.2036 85.3459 14.0963 84.9959 13.8816C84.6505 13.6623 84.3799 13.3613 84.1839 12.9786C83.9925 12.5913 83.8969 12.1503 83.8969 11.6556C83.8969 11.161 83.9925 10.7223 84.1839 10.3396C84.3799 9.9523 84.6505 9.6513 84.9959 9.43663C85.3459 9.2173 85.7495 9.10763 86.2069 9.10763ZM86.2069 13.4406C86.5055 13.4406 86.7645 13.366 86.9839 13.2166C87.2032 13.0626 87.3712 12.8503 87.4879 12.5796C87.6092 12.309 87.6699 12.001 87.6699 11.6556C87.6699 11.3103 87.6092 11.0023 87.4879 10.7316C87.3712 10.461 87.2032 10.251 86.9839 10.1016C86.7645 9.94763 86.5055 9.87063 86.2069 9.87063C85.9082 9.87063 85.6492 9.94763 85.4299 10.1016C85.2105 10.251 85.0425 10.461 84.9259 10.7316C84.8092 11.0023 84.7509 11.3103 84.7509 11.6556C84.7509 12.001 84.8092 12.309 84.9259 12.5796C85.0425 12.8503 85.2105 13.0626 85.4299 13.2166C85.6492 13.366 85.9082 13.4406 86.2069 13.4406ZM90.9435 14.1196V9.19163H92.8475C93.1695 9.19163 93.4448 9.24763 93.6735 9.35963C93.9021 9.47163 94.0748 9.62563 94.1915 9.82163C94.3081 10.013 94.3665 10.23 94.3665 10.4726C94.3665 10.748 94.3035 10.9766 94.1775 11.1586C94.0515 11.3406 93.8998 11.469 93.7225 11.5436C93.8578 11.581 93.9885 11.6486 94.1145 11.7466C94.2405 11.8446 94.3455 11.9753 94.4295 12.1386C94.5135 12.302 94.5555 12.4956 94.5555 12.7196C94.5555 12.995 94.4878 13.2376 94.3525 13.4476C94.2171 13.6576 94.0258 13.8233 93.7785 13.9446C93.5311 14.0613 93.2418 14.1196 92.9105 14.1196H90.9435ZM91.7765 13.6576L91.5105 13.4056H92.8195C93.0901 13.4056 93.3048 13.3426 93.4635 13.2166C93.6268 13.086 93.7085 12.904 93.7085 12.6706C93.7085 12.4466 93.6291 12.2693 93.4705 12.1386C93.3165 12.0033 93.1088 11.9356 92.8475 11.9356H91.6085V11.2496H92.7635C93.0108 11.2496 93.1998 11.1866 93.3305 11.0606C93.4611 10.9346 93.5265 10.7736 93.5265 10.5776C93.5265 10.3676 93.4565 10.2043 93.3165 10.0876C93.1765 9.9663 92.9805 9.90563 92.7285 9.90563H91.5105L91.7765 9.65363V13.6576Z" fill="white"/>
<path fill-rule="evenodd" clip-rule="evenodd" d="M48.9394 23.8441C48.9394 20.6887 51.5916 18.1196 54.7469 18.1196C56.4913 18.1196 57.7325 18.8046 58.6692 19.6967L57.5664 20.7995C56.897 20.171 55.9893 19.6835 54.7457 19.6835C52.4415 19.6835 50.6405 21.5386 50.6405 23.8429C50.6405 26.1471 52.4415 28.0047 54.7445 28.0047C56.2385 28.0047 57.0885 27.4051 57.6338 26.8586C58.0805 26.4119 58.373 25.7703 58.4862 24.8902H54.7469V23.33H60.0103C60.0657 23.6093 60.0945 23.944 60.0945 24.3064C60.0945 25.4777 59.7731 26.9308 58.739 27.9649C57.7325 29.0123 56.4492 29.5709 54.7457 29.5709C51.5892 29.5709 48.937 27.0042 48.937 23.8465L48.9394 23.8441ZM64.349 22.1972C62.3109 22.1972 60.6471 23.7478 60.6471 25.8822C60.6471 28.0059 62.3097 29.5673 64.349 29.5673C66.3884 29.5673 68.0486 28.0035 68.0486 25.881C68.0486 23.7465 66.3872 22.196 64.349 22.1972ZM64.349 28.1178C63.2331 28.1178 62.2687 27.1969 62.2687 25.8834C62.2687 24.5568 63.2318 23.649 64.349 23.649C65.465 23.649 66.4281 24.5556 66.4281 25.8834C66.4281 27.1957 65.4662 28.1178 64.349 28.1178ZM72.421 22.1972C70.3829 22.1972 68.7215 23.7478 68.7215 25.8822C68.7215 28.0059 70.3829 29.5673 72.421 29.5673C74.4592 29.5673 76.1206 28.0035 76.1206 25.881C76.1206 23.7465 74.4604 22.196 72.421 22.1972ZM72.421 28.1178C71.305 28.1178 70.3407 27.1969 70.3407 25.8834C70.3407 24.5568 71.3038 23.649 72.421 23.649C73.537 23.649 74.5013 24.5556 74.5013 25.8834C74.5013 27.1957 73.537 28.1178 72.421 28.1178ZM82.3277 22.4211V23.0206H82.2724C81.91 22.586 81.2118 22.196 80.3329 22.196C78.4898 22.196 76.7983 23.8164 76.7983 25.8979C76.7983 27.9625 78.4886 29.5697 80.3329 29.5697C81.2118 29.5697 81.91 29.1796 82.2724 28.733H82.3277V29.2627C82.3277 30.6725 81.5741 31.4273 80.3594 31.4273C79.3674 31.4273 78.7534 30.7146 78.5018 30.1163L77.0909 30.7025C77.4954 31.6789 78.5716 32.8804 80.3582 32.8804C82.2555 32.8804 83.8615 31.762 83.8615 29.04V22.4199L82.3277 22.4211ZM80.4714 28.1178C79.3554 28.1178 78.4176 27.1812 78.4176 25.8979C78.4176 24.6001 79.3542 23.6502 80.4714 23.6502C81.5741 23.6502 82.4397 24.5989 82.4397 25.8979C82.4409 27.1812 81.5753 28.1178 80.4714 28.1178ZM84.9799 18.5109H86.6003V29.3458H84.9799V18.5109ZM91.0414 28.1178C90.218 28.1178 89.6305 27.7398 89.2561 27.0018L94.1847 24.9613L94.015 24.5423C93.7092 23.7201 92.7726 22.1972 90.8596 22.1972C88.9611 22.1972 87.3828 23.6912 87.3828 25.8834C87.3828 27.9481 88.9467 29.5685 91.0414 29.5685C92.7317 29.5685 93.7092 28.5368 94.1137 27.9348L92.8569 27.0981C92.4367 27.7133 91.8637 28.119 91.0414 28.1178ZM90.915 23.6213C91.5567 23.6213 92.1008 23.9428 92.2826 24.4027L88.9864 25.7715C88.9455 24.3473 90.0903 23.6213 90.915 23.6213Z" fill="white"/>
<path fill-rule="evenodd" clip-rule="evenodd" d="M101.295 18.5107H97.4207V29.3456H99.0375V25.2416H101.296C103.089 25.2416 104.851 23.9438 104.851 21.8756C104.851 19.8109 103.09 18.5119 101.298 18.5119L101.295 18.5107ZM101.337 23.7332H99.0375V20.018H101.337C102.546 20.018 103.234 21.0208 103.234 21.8756C103.234 22.7159 102.546 23.7332 101.337 23.7332ZM107.359 29.3456V18.5107H105.742V29.3456H107.359ZM114.622 29.3264V25.173C114.622 23.2492 113.184 22.1765 111.329 22.1765C110.16 22.1765 108.948 22.693 108.446 23.8355L109.881 24.4338C110.188 23.8355 110.758 23.6393 111.359 23.6393C112.195 23.6393 113.045 24.1413 113.058 25.0346V25.1465C112.765 24.9792 112.139 24.7276 111.371 24.7276C109.824 24.7276 108.25 25.5775 108.25 27.1666C108.25 28.6173 109.518 29.5503 110.94 29.5503C112.028 29.5503 112.627 29.0627 113.002 28.4921H113.058V29.3288H114.62L114.622 29.3264ZM111.136 28.1153C110.607 28.1153 109.868 27.8504 109.868 27.1967C109.868 26.36 110.789 26.0374 111.583 26.0374C112.295 26.0374 112.628 26.1903 113.061 26.3997C112.937 27.3725 112.115 28.1032 111.136 28.1153ZM120.308 22.4137L118.454 27.11H118.398L116.474 22.4137H114.732L117.617 28.9797L115.971 32.631H117.658L122.104 22.4137H120.308Z" fill="white"/>
<defs>
<linearGradient id="paint0_linear_6344_8739" x1="27.9067" y1="9.96947" x2="10.5554" y2="14.5927" gradientUnits="userSpaceOnUse">
<stop stop-color="#00A0FF"/>
<stop offset="0.007" stop-color="#00A1FF"/>
<stop offset="0.26" stop-color="#00BEFF"/>
<stop offset="0.512" stop-color="#00D2FF"/>
<stop offset="0.76" stop-color="#00DFFF"/>
<stop offset="1" stop-color="#00E3FF"/>
</linearGradient>
<linearGradient id="paint1_linear_6344_8739" x1="38.4288" y1="19.8437" x2="17.2749" y2="19.8437" gradientUnits="userSpaceOnUse">
<stop stop-color="#FFE000"/>
<stop offset="0.409" stop-color="#FFBD00"/>
<stop offset="0.775" stop-color="#FFA500"/>
<stop offset="1" stop-color="#FF9C00"/>
</linearGradient>
<linearGradient id="paint2_linear_6344_8739" x1="30.5539" y1="21.8522" x2="16.6242" y2="45.2967" gradientUnits="userSpaceOnUse">
<stop stop-color="#FF3A44"/>
<stop offset="1" stop-color="#C31162"/>
</linearGradient>
<linearGradient id="paint3_linear_6344_8739" x1="15.2251" y1="2.51327" x2="21.4396" y2="12.984" gradientUnits="userSpaceOnUse">
<stop stop-color="#32A071"/>
<stop offset="0.069" stop-color="#2DA771"/>
<stop offset="0.476" stop-color="#15CF74"/>
<stop offset="0.801" stop-color="#06E775"/>
<stop offset="1" stop-color="#00F076"/>
</linearGradient>
</defs>
</svg>
