<svg width="121" height="40" viewBox="0 0 121 40" fill="none" xmlns="http://www.w3.org/2000/svg">
<g clip-path="url(#clip0_6344_8707)">
<rect x="0.698486" y="-0.0494385" width="120" height="40" rx="8" fill="black"/>
<path d="M25.4674 20.3006C25.4781 19.4659 25.6998 18.6475 26.1118 17.9216C26.5239 17.1956 27.1128 16.5857 27.8239 16.1485C27.3722 15.5034 26.7762 14.9724 26.0834 14.5979C25.3906 14.2233 24.62 14.0155 23.8328 13.9908C22.1535 13.8146 20.5256 14.9957 19.6699 14.9957C18.7976 14.9957 17.4801 14.0083 16.0614 14.0375C15.1437 14.0672 14.2493 14.334 13.4655 14.8121C12.6816 15.2901 12.0349 15.9631 11.5884 16.7654C9.65444 20.1138 11.097 25.0349 12.9496 27.7415C13.8765 29.0668 14.9598 30.5473 16.3773 30.4948C17.7643 30.4372 18.2824 29.6103 19.9567 29.6103C21.6154 29.6103 22.1015 30.4948 23.5477 30.4614C25.036 30.4372 25.9738 29.1302 26.8682 27.7923C27.5342 26.8479 28.0466 25.8042 28.3866 24.6997C27.5219 24.334 26.784 23.7218 26.2648 22.9395C25.7457 22.1572 25.4684 21.2394 25.4674 20.3006V20.3006Z" fill="white"/>
<path d="M22.7357 12.2108C23.5472 11.2366 23.947 9.98445 23.8502 8.72021C22.6104 8.85044 21.4651 9.44299 20.6426 10.3798C20.2405 10.8375 19.9325 11.3699 19.7362 11.9467C19.54 12.5235 19.4594 13.1333 19.4989 13.7412C20.1191 13.7476 20.7326 13.6132 21.2932 13.3481C21.8539 13.083 22.3471 12.6942 22.7357 12.2108Z" fill="white"/>
<path d="M43.0007 27.1397H38.2673L37.1306 30.4961H35.1257L39.6091 18.0781H41.6921L46.1755 30.4961H44.1365L43.0007 27.1397ZM38.7576 25.5908H42.5096L40.66 20.1436H40.6082L38.7576 25.5908Z" fill="white"/>
<path d="M55.8582 25.9698C55.8582 28.7833 54.3523 30.5909 52.0799 30.5909C51.5042 30.621 50.9317 30.4884 50.4279 30.2083C49.9241 29.9281 49.5094 29.5118 49.2312 29.0069H49.1882V33.4913H47.3298V21.4425H49.1287V22.9483H49.1629C49.4538 22.4459 49.8756 22.0317 50.3832 21.7498C50.8908 21.468 51.4654 21.329 52.0457 21.3477C54.3435 21.3477 55.8582 23.1641 55.8582 25.9698ZM53.948 25.9698C53.948 24.1368 53.0008 22.9317 51.5554 22.9317C50.1355 22.9317 49.1804 24.1622 49.1804 25.9698C49.1804 27.794 50.1355 29.0157 51.5554 29.0157C53.0008 29.0157 53.948 27.8194 53.948 25.9698Z" fill="white"/>
<path d="M65.823 25.9698C65.823 28.7833 64.3172 30.5909 62.0447 30.5909C61.4691 30.621 60.8966 30.4884 60.3928 30.2083C59.889 29.9281 59.4742 29.5118 59.1961 29.0069H59.1531V33.4913H57.2947V21.4425H59.0935V22.9483H59.1277C59.4186 22.4459 59.8404 22.0317 60.348 21.7498C60.8556 21.468 61.4302 21.329 62.0105 21.3477C64.3084 21.3477 65.823 23.1641 65.823 25.9698ZM63.9129 25.9698C63.9129 24.1368 62.9656 22.9317 61.5203 22.9317C60.1004 22.9317 59.1453 24.1622 59.1453 25.9698C59.1453 27.794 60.1004 29.0157 61.5203 29.0157C62.9656 29.0157 63.9129 27.8194 63.9129 25.9698H63.9129Z" fill="white"/>
<path d="M72.409 27.0362C72.5467 28.2676 73.743 29.0762 75.3777 29.0762C76.9441 29.0762 78.0711 28.2676 78.0711 27.1572C78.0711 26.1934 77.3914 25.6162 75.782 25.2207L74.1726 24.833C71.8924 24.2822 70.8338 23.2158 70.8338 21.4854C70.8338 19.3428 72.701 17.8711 75.3523 17.8711C77.9763 17.8711 79.7752 19.3428 79.8357 21.4854H77.9597C77.8474 20.2461 76.823 19.4981 75.3259 19.4981C73.8289 19.4981 72.8045 20.2549 72.8045 21.3565C72.8045 22.2344 73.4588 22.751 75.0593 23.1465L76.4275 23.4824C78.9753 24.0849 80.0339 25.1084 80.0339 26.9248C80.0339 29.248 78.1834 30.7031 75.24 30.7031C72.4861 30.7031 70.6267 29.2822 70.5066 27.0361L72.409 27.0362Z" fill="white"/>
<path d="M84.0447 19.2998V21.4424H85.7663V22.9141H84.0447V27.9053C84.0447 28.6807 84.3894 29.042 85.1462 29.042C85.3506 29.0384 85.5547 29.0241 85.7576 28.999V30.4619C85.4173 30.5255 85.0714 30.5543 84.7253 30.5478C82.8923 30.5478 82.1775 29.8593 82.1775 28.1035V22.9141H80.8611V21.4424H82.1775V19.2998H84.0447Z" fill="white"/>
<path d="M86.7635 25.9697C86.7635 23.1211 88.4413 21.3311 91.0575 21.3311C93.6825 21.3311 95.3524 23.1211 95.3524 25.9697C95.3524 28.8262 93.6913 30.6084 91.0575 30.6084C88.4246 30.6084 86.7635 28.8262 86.7635 25.9697ZM93.4589 25.9697C93.4589 24.0156 92.5633 22.8623 91.0575 22.8623C89.5516 22.8623 88.6571 24.0244 88.6571 25.9697C88.6571 27.9316 89.5516 29.0762 91.0575 29.0762C92.5633 29.0762 93.4588 27.9316 93.4588 25.9697H93.4589Z" fill="white"/>
<path d="M96.8845 21.4424H98.657V22.9834H98.7C98.8199 22.5021 99.1019 22.0768 99.4985 21.7789C99.895 21.481 100.382 21.3287 100.878 21.3476C101.092 21.3469 101.305 21.3702 101.514 21.417V23.1553C101.244 23.0726 100.962 23.0347 100.679 23.043C100.409 23.032 100.14 23.0796 99.8905 23.1825C99.6406 23.2854 99.416 23.4411 99.232 23.639C99.0481 23.8369 98.9091 24.0723 98.8247 24.3289C98.7402 24.5856 98.7123 24.8575 98.7429 25.126V30.4961H96.8845L96.8845 21.4424Z" fill="white"/>
<path d="M110.083 27.8369C109.833 29.4805 108.232 30.6084 106.184 30.6084C103.551 30.6084 101.916 28.8437 101.916 26.0127C101.916 23.1729 103.559 21.3311 106.106 21.3311C108.611 21.3311 110.186 23.0518 110.186 25.7969V26.4336H103.792V26.5459C103.762 26.8791 103.804 27.2148 103.914 27.5306C104.024 27.8464 104.2 28.1352 104.431 28.3778C104.661 28.6203 104.94 28.8111 105.25 28.9374C105.56 29.0637 105.893 29.1226 106.227 29.1103C106.666 29.1515 107.107 29.0498 107.484 28.8203C107.861 28.5909 108.153 28.246 108.318 27.8369L110.083 27.8369ZM103.801 25.1348H108.327C108.344 24.8352 108.298 24.5354 108.193 24.2541C108.089 23.9729 107.927 23.7164 107.719 23.5006C107.51 23.2849 107.259 23.1145 106.982 23.0003C106.704 22.8861 106.406 22.8305 106.106 22.8369C105.804 22.8351 105.504 22.8933 105.224 23.008C104.943 23.1227 104.689 23.2918 104.475 23.5054C104.26 23.7191 104.09 23.973 103.975 24.2527C103.859 24.5323 103.8 24.8321 103.801 25.1348V25.1348Z" fill="white"/>
<path d="M37.4368 11.2534H38.2346C38.372 11.2705 38.5114 11.259 38.644 11.2195C38.7767 11.1801 38.8998 11.1136 39.0054 11.0242C39.1111 10.9349 39.1972 10.8246 39.2581 10.7003C39.3191 10.576 39.3536 10.4405 39.3596 10.3022C39.3596 9.75193 38.9456 9.39646 38.2434 9.39646C38.1027 9.3768 37.9595 9.38553 37.8222 9.42214C37.6849 9.45875 37.5563 9.52249 37.4441 9.60961C37.3319 9.69672 37.2382 9.80544 37.1687 9.92935C37.0992 10.0533 37.0552 10.1898 37.0393 10.331H36.1633C36.1784 10.0747 36.2461 9.82428 36.3621 9.59527C36.4782 9.36626 36.6401 9.16359 36.8379 8.99989C37.0357 8.83618 37.2651 8.71494 37.5117 8.64372C37.7584 8.5725 38.0171 8.55282 38.2717 8.58591C39.4465 8.58591 40.2737 9.24362 40.2737 10.1904C40.2765 10.5076 40.1703 10.8161 39.9731 11.0645C39.7758 11.3129 39.4993 11.486 39.1897 11.5551V11.6255C39.5567 11.6417 39.9023 11.8027 40.151 12.073C40.3997 12.3434 40.5312 12.7013 40.5168 13.0683C40.4897 13.3322 40.4101 13.588 40.2828 13.8208C40.1555 14.0535 39.983 14.2585 39.7755 14.4237C39.5679 14.5889 39.3295 14.7111 39.0741 14.7829C38.8187 14.8548 38.5516 14.875 38.2883 14.8423C38.0245 14.8782 37.7562 14.8607 37.4993 14.7907C37.2424 14.7208 37.0022 14.5998 36.793 14.4351C36.5839 14.2703 36.4101 14.0651 36.2819 13.8317C36.1538 13.5983 36.0739 13.3415 36.0471 13.0766H36.9368C36.9905 13.6474 37.5149 14.0156 38.2883 14.0156C39.0618 14.0156 39.5667 13.6021 39.5667 13.0191C39.5667 12.4277 39.0911 12.0635 38.26 12.0635H37.4368V11.2534Z" fill="white"/>
<path d="M41.5276 13.4243C41.5276 12.6138 42.1321 12.1465 43.2024 12.0801L44.4221 12.0098V11.6211C44.4221 11.1455 44.1086 10.877 43.5002 10.877C43.0042 10.877 42.6614 11.0591 42.5618 11.3774H41.7014C41.7922 10.604 42.5208 10.1079 43.5422 10.1079C44.6711 10.1079 45.3079 10.6699 45.3079 11.6211V14.6978H44.4514V14.0649H44.3811C44.2384 14.2919 44.038 14.477 43.8004 14.6012C43.5627 14.7254 43.2964 14.7843 43.0286 14.7719C42.8395 14.7916 42.6485 14.7714 42.4677 14.7127C42.287 14.654 42.1205 14.5581 41.9791 14.4311C41.8377 14.3042 41.7244 14.149 41.6467 13.9756C41.5689 13.8021 41.5283 13.6144 41.5276 13.4243V13.4243ZM44.4221 13.0395V12.6631L43.3225 12.7334C42.7023 12.7749 42.4211 12.9858 42.4211 13.3828C42.4211 13.7881 42.7727 14.0239 43.2561 14.0239C43.3977 14.0383 43.5408 14.024 43.6768 13.9819C43.8129 13.9398 43.939 13.8708 44.0478 13.7789C44.1566 13.6871 44.2458 13.5743 44.3101 13.4473C44.3744 13.3202 44.4125 13.1816 44.4221 13.0395V13.0395Z" fill="white"/>
<path d="M47.6663 10.9429V14.6978H46.7776V10.1948H49.7425V10.9428L47.6663 10.9429Z" fill="white"/>
<path d="M55.1282 12.4443C55.1282 13.875 54.4045 14.7719 53.2678 14.7719C52.9888 14.791 52.7101 14.7299 52.4646 14.5959C52.2191 14.4619 52.017 14.2606 51.8821 14.0156H51.8118V16.1948H50.9231V10.1948H51.7786V10.939H51.845C51.9823 10.6854 52.1871 10.4747 52.4366 10.3302C52.6861 10.1857 52.9708 10.113 53.259 10.1201C54.4045 10.1201 55.1282 11.0131 55.1282 12.4443ZM54.2141 12.4443C54.2141 11.4931 53.7639 10.9184 53.011 10.9184C52.263 10.9184 51.7952 11.5053 51.7952 12.4482C51.7952 13.3867 52.2629 13.9741 53.0071 13.9741C53.7639 13.9741 54.2141 13.3994 54.2141 12.4443Z" fill="white"/>
<path d="M56.3118 16.3106V15.5454C56.408 15.5576 56.5049 15.5632 56.6018 15.562C56.7911 15.576 56.979 15.5197 57.1293 15.4037C57.2796 15.2877 57.3818 15.1203 57.4163 14.9336L57.4827 14.7144L55.8528 10.1948H56.8206L57.9495 13.7715H58.0198L59.1448 10.1948H60.0872L58.4085 14.8838C58.0237 15.9795 57.598 16.3311 56.68 16.3311C56.6058 16.3311 56.3948 16.3228 56.3118 16.3106Z" fill="white"/>
<path d="M60.7795 13.4199H61.6643C61.7512 13.8169 62.1233 14.0239 62.6438 14.0239C63.2356 14.0239 63.5989 13.7632 63.5989 13.3579C63.5989 12.9238 63.2727 12.7168 62.6438 12.7168H61.97V12.0264H62.6321C63.1692 12.0264 63.4426 11.8198 63.4426 11.4434C63.4426 11.1128 63.178 10.8604 62.6321 10.8604C62.135 10.8604 61.7717 11.0713 61.7141 11.4268H60.8577C60.9217 11.0183 61.1435 10.6513 61.4753 10.4047C61.8071 10.158 62.2225 10.0515 62.6321 10.1079C63.7024 10.1079 64.3147 10.5918 64.3147 11.3526C64.3197 11.5644 64.2518 11.7715 64.1224 11.9393C63.993 12.1071 63.8099 12.2254 63.6038 12.2744V12.3447C63.8492 12.3764 64.0745 12.4971 64.2369 12.6838C64.3992 12.8706 64.4874 13.1105 64.4846 13.3579C64.4846 14.2139 63.7561 14.7803 62.6438 14.7803C61.6604 14.7803 60.8616 14.3296 60.7795 13.4199Z" fill="white"/>
<path d="M65.7644 14.6978V10.1948H66.6453V13.292H66.7156L68.7908 10.1948H69.6716V14.6978H68.7908V11.584H68.7244L66.6453 14.6978L65.7644 14.6978Z" fill="white"/>
<path d="M74.5242 10.9428H73.1062V14.6977H72.2166V10.9428H70.7986V10.1948H74.5242V10.9428Z" fill="white"/>
<path d="M79.3112 13.4819C79.1901 13.8934 78.9283 14.2493 78.5715 14.4874C78.2147 14.7255 77.7855 14.8307 77.359 14.7846C77.0624 14.7925 76.7676 14.7356 76.4951 14.6181C76.2226 14.5006 75.9789 14.3252 75.781 14.104C75.5831 13.8829 75.4357 13.6213 75.349 13.3375C75.2623 13.0537 75.2384 12.7544 75.279 12.4604C75.2395 12.1655 75.2638 11.8656 75.3503 11.5809C75.4368 11.2962 75.5834 11.0335 75.7803 10.8104C75.9771 10.5873 76.2196 10.4092 76.4913 10.2879C76.763 10.1667 77.0576 10.1053 77.3551 10.1079C78.6081 10.1079 79.3649 10.9639 79.3649 12.3779V12.688H76.1852V12.7378C76.1711 12.903 76.1918 13.0694 76.2459 13.2263C76.2999 13.3831 76.3862 13.5269 76.4991 13.6484C76.6121 13.7698 76.7492 13.8664 76.9017 13.9317C77.0541 13.997 77.2186 14.0298 77.3844 14.0278C77.5969 14.0532 77.8121 14.0148 78.0026 13.9176C78.1932 13.8204 78.3506 13.6687 78.4548 13.4819L79.3112 13.4819ZM76.1852 12.0307H78.4586C78.4699 11.8797 78.4494 11.7279 78.3985 11.5853C78.3476 11.4426 78.2674 11.3122 78.1632 11.2023C78.0589 11.0925 77.9328 11.0056 77.7929 10.9474C77.6531 10.8892 77.5027 10.8609 77.3512 10.8642C77.1975 10.8621 77.0449 10.8909 76.9024 10.9488C76.76 11.0067 76.6306 11.0925 76.5219 11.2013C76.4132 11.31 76.3274 11.4394 76.2696 11.5819C76.2118 11.7244 76.1831 11.877 76.1852 12.0307H76.1852Z" fill="white"/>
<path d="M83.0789 10.1948H85.1091C85.99 10.1948 86.5066 10.6411 86.5066 11.3398C86.508 11.5615 86.4331 11.777 86.2947 11.9501C86.1562 12.1233 85.9624 12.2436 85.7458 12.291V12.3613C86.0088 12.3779 86.2554 12.4949 86.4346 12.6881C86.6138 12.8813 86.7119 13.1359 86.7087 13.3994C86.7087 14.185 86.1179 14.6977 85.1296 14.6977H83.0789V10.1948ZM83.9597 10.877V12.043H84.8406C85.3777 12.043 85.6345 11.8364 85.6345 11.4556C85.6345 11.1045 85.4109 10.8769 84.9392 10.8769L83.9597 10.877ZM83.9597 12.6963V14.0156H85.0135C85.5389 14.0156 85.8201 13.7837 85.8201 13.3579C85.8201 12.9072 85.5018 12.6963 84.9021 12.6963L83.9597 12.6963Z" fill="white"/>
</g>
<defs>
<clipPath id="clip0_6344_8707">
<rect width="120" height="40" fill="white" transform="translate(0.698486)"/>
</clipPath>
</defs>
</svg>
