<svg width="199" height="58" viewBox="0 0 199 58" fill="none" xmlns="http://www.w3.org/2000/svg">
<g clip-path="url(#clip0)">
<path d="M30.6125 14.4095H23.4025L13.7827 38.1314H19.9546L27.0122 19.8126L34.0604 38.1314H40.2323L30.6125 14.4095Z" fill="#37A134"/>
<path d="M24.4026 55.5631H24.3359C20.7166 55.1908 17.2306 54.093 14.078 52.3747C8.0109 49.0527 3.20102 43.4014 1.10563 36.2323C-0.999292 29.0633 0.000782689 21.7128 3.31531 15.632C5.0202 12.5009 7.34419 9.70387 10.1634 7.44146L10.2206 7.39373C10.2206 7.39373 10.2206 7.39373 10.2301 7.38418C14.4019 3.95715 19.526 1.6661 25.0693 0.950147C25.0979 0.940601 25.2789 0.921509 25.3074 0.921509L27.6314 6.65868C27.6028 6.65868 27.4123 6.67778 27.3742 6.67778C22.431 6.98325 17.8402 8.84473 14.1542 11.8231C14.0971 11.8708 14.0399 11.9186 13.9828 11.9663C13.8875 12.0427 13.7923 12.119 13.7066 12.1954H13.697L13.678 12.2145C13.6494 12.2336 13.6304 12.2527 13.6018 12.2718C11.5159 13.9996 9.78246 16.1093 8.50618 18.4576C5.91551 23.2115 5.1345 28.9583 6.78224 34.5618C8.42046 40.1653 12.1731 44.5756 16.9068 47.1721C19.4117 48.5468 22.2024 49.4059 25.0979 49.6732C31.4126 50.1982 37.3559 48.1649 41.9087 44.4229C42.1277 44.2415 42.3468 44.0601 42.5563 43.8692L44.8898 49.6159C39.2418 53.9498 32.0222 56.2504 24.4026 55.5631Z" fill="#37A134"/>
<path d="M83.5692 10.3521H79.0355V36.9092H83.5692V10.3521ZM89.8553 15.6597C91.4936 15.6597 92.7222 14.476 92.7222 12.7959C92.7222 11.154 91.4936 9.93207 89.8553 9.93207C88.2171 9.93207 86.9313 11.154 86.9313 12.7959C86.9313 14.476 88.1886 15.6597 89.8553 15.6597ZM92.0936 17.9317H87.5218V36.9092H92.0936V17.9317ZM105.704 13.7028C106.542 13.7028 107.552 13.951 108.733 14.476L110.162 10.9153C108.495 10.0371 106.78 9.61705 105.076 9.61705C100.58 9.61705 97.5416 12.2709 97.5416 17.063V17.9317H94.5414V21.7787H97.5416V36.9092H102.075V21.7787H108V17.9317H102.075V17.168C102.075 14.9342 103.361 13.7028 105.704 13.7028Z" fill="#222222"/>
<path d="M70.9109 27.4012C70.9109 29.0431 70.387 30.4082 69.3393 31.5251C68.2916 32.6515 66.6724 33.2052 65.0342 33.2052C63.396 33.2052 62.0626 32.6515 61.0244 31.5251C60.0053 30.4177 59.491 29.0431 59.491 27.4012C59.491 25.7975 60.0053 24.4228 61.0244 23.3155C62.0626 22.189 63.396 21.6354 65.0342 21.6354C66.6724 21.6354 68.2916 22.1986 69.3393 23.3155C70.387 24.4324 70.9109 25.7975 70.9109 27.4012ZM70.8061 19.6975C69.1107 18.237 67.0344 17.4828 64.6342 17.4828C61.9483 17.4828 59.3862 18.4279 57.6051 20.2798C55.824 22.1318 54.9573 24.5087 54.9573 27.3344C54.9573 30.1695 55.824 32.5752 57.6051 34.5035C59.3862 36.4222 61.9102 37.3673 64.6342 37.3673C67.1106 37.3673 68.9393 36.6513 70.8061 35.1621V36.9091H75.1302V17.9315H70.8061V19.6975Z" fill="#222222"/>
<path d="M138.621 17.7316C135.697 17.7316 133.077 19.1254 131.82 21.2255C130.744 19.0204 128.439 17.7316 125.896 17.7316C123.42 17.7316 121.4 18.9917 120.286 20.9773V18.2185H117.248V36.9192H120.353V26.4281C120.353 22.9342 122.448 20.6336 125.477 20.6336C128.372 20.6336 130.115 22.7624 130.115 26.3613V36.9192H133.22V26.3613C133.22 22.9724 135.278 20.6336 138.306 20.6336C141.135 20.6336 142.907 22.6574 142.907 26.2945V36.9192H146.012V25.8362C146.012 23.3543 145.355 21.3973 144.031 19.9368C142.707 18.4667 140.888 17.7316 138.621 17.7316ZM149.126 27.5545C149.126 30.3133 150.041 32.6521 151.888 34.5422C153.736 36.4228 156.07 37.3679 158.889 37.3679C161.718 37.3679 164.051 36.4228 165.899 34.5422C167.747 32.6521 168.652 30.3133 168.652 27.5545C168.652 24.8244 167.718 22.5142 165.87 20.6336C164.023 18.7053 161.718 17.7698 158.889 17.7698C156.07 17.7698 153.736 18.7053 151.888 20.6336C150.041 22.5142 149.126 24.8244 149.126 27.5545ZM165.518 27.5545C165.518 29.4733 164.889 31.1152 163.604 32.4803C162.308 33.8358 160.737 34.5041 158.889 34.5041C157.041 34.5041 155.479 33.8358 154.184 32.4803C152.898 31.1152 152.269 29.4733 152.269 27.5545C152.269 25.6644 152.898 24.0511 154.184 22.6956C155.479 21.3305 157.041 20.6336 158.889 20.6336C160.737 20.6336 162.308 21.3305 163.604 22.6956C164.889 24.0511 165.518 25.6644 165.518 27.5545ZM181.576 17.7698C178.814 17.7698 176.585 18.8867 174.881 21.0823V10.4671H171.776V36.9192H174.881V34.1509C176.547 36.2892 178.786 37.3679 181.538 37.3679C184.224 37.3679 186.424 36.4324 188.196 34.5422C189.986 32.6235 190.882 30.3133 190.882 27.5832C190.882 24.8625 189.977 22.5524 188.196 20.6336C186.415 18.7053 184.224 17.7698 181.576 17.7698ZM181.224 34.4372C179.271 34.4372 177.7 33.769 176.519 32.4421C175.328 31.1152 174.738 29.4733 174.738 27.5545C174.738 25.6262 175.328 24.0225 176.519 22.6956C177.7 21.3687 179.271 20.7005 181.224 20.7005C183.138 20.7005 184.691 21.3782 185.891 22.6956C187.101 24.0034 187.71 25.6262 187.71 27.5545C187.71 29.4733 187.11 31.1057 185.891 32.4421C184.7 33.7595 183.138 34.4372 181.224 34.4372ZM195.844 15.4979C197.101 15.4979 198.111 14.486 198.111 13.1877C198.111 11.899 197.101 10.9158 195.844 10.9158C194.482 10.9158 193.511 11.899 193.511 13.1877C193.511 14.486 194.482 15.4979 195.844 15.4979ZM197.349 18.2185H194.244V36.9192H197.349V18.2185Z" fill="#222222"/>
</g>
<defs>
<clipPath id="clip0">
<rect width="199" height="56.473" fill="white" transform="translate(0 0.871628)"/>
</clipPath>
</defs>
</svg>
