<svg width="188" height="104" viewBox="0 0 188 104" fill="none" xmlns="http://www.w3.org/2000/svg">
<rect width="187.243" height="104" rx="16" fill="white"/>
<g clip-path="url(#clip0_12_103)">
<path d="M51.2688 32C47.4574 32.0006 43.7317 33.1607 40.5628 35.3338C37.394 37.5068 34.9243 40.5951 33.4662 44.2081C32.008 47.8212 31.6267 51.7968 32.3707 55.6321C33.1146 59.4675 34.9502 62.9904 37.6455 65.7555C40.3408 68.5204 43.7747 70.4034 47.513 71.1661C51.2512 71.9288 55.1259 71.537 58.6472 70.0403C62.1685 68.5437 65.1782 66.0093 67.2957 62.7577C69.4131 59.5062 70.5432 55.6835 70.5432 51.7729C70.5373 46.5302 68.5045 41.504 64.8911 37.7971C61.2776 34.0903 56.3786 32.0054 51.2688 32ZM53.5088 59.491C51.5845 61.9941 48.7848 63.6283 45.7044 64.0466C45.7044 64.0466 47.9472 63.1705 50.0762 59.5698C52.1142 55.759 52.2878 52.8797 54.2061 50.4062C57.4479 46.2244 61.6262 47.2144 61.6262 47.2144C61.1451 45.6492 59.7277 44.6855 57.7155 44.776C57.0609 42.6004 54.2289 41.7944 52.2109 42.872C50.7109 43.6692 49.1 44.8256 47.3012 44.7877C47.1006 44.792 46.9001 44.7832 46.7006 44.7614C45.5788 44.584 44.5437 44.0365 43.752 43.2019C43.6267 44.9979 44.7538 46.68 46.0858 47.2407C48.3628 48.1956 49.9709 47.0362 49.9709 47.0362C48.5328 50.9271 45.9455 54.2597 42.5708 56.5679C38.7711 54.6376 36.2665 51.1216 35.7399 46.277C37.0054 42.5163 39.5309 39.3387 42.8665 37.3099C46.2021 35.2811 50.1312 34.533 53.9543 35.1987C57.7772 35.8644 61.2457 37.9007 63.7422 40.9451C66.2386 43.9894 67.6008 47.844 67.5861 51.8225C67.5861 52.0094 67.5861 52.1934 67.5861 52.3802C66.0173 54.6904 63.903 56.5544 61.441 57.798C58.979 59.0415 56.2498 59.6241 53.5088 59.491Z" fill="#FF5A1E"/>
<path d="M108.549 53.4249C108.549 54.9492 108.169 56.1173 107.41 56.9292C106.651 57.741 105.637 58.1411 104.368 58.1294C103.229 58.1294 102.349 57.7828 101.726 57.0898C101.104 56.3967 100.794 55.3561 100.796 53.968V46.3901H97.2407V54.4207C97.2407 56.7296 97.827 58.4603 98.9996 59.6129C100.172 60.7653 101.777 61.3416 103.812 61.3416C104.723 61.349 105.625 61.1755 106.471 60.8306C107.263 60.5024 107.973 59.9954 108.549 59.3472V60.4334C108.549 62.0357 108.181 63.2233 107.447 63.9961C106.713 64.769 105.566 65.1584 104.006 65.1642C103.162 65.1691 102.326 64.9993 101.547 64.6649C100.68 64.3735 99.8759 63.9157 99.1761 63.3157L97.5737 66.0723C98.4901 66.8479 99.5576 67.4134 100.705 67.7311C101.833 68.1197 103.015 68.317 104.205 68.3152C109.482 68.3152 112.121 65.5594 112.121 60.0479V46.3901H108.549V53.4249Z" fill="#FF5A1E"/>
<path d="M131.776 46.3901L126.092 56.1815L120.662 46.3901H116.916V62.0454H120.175V51.6378L125.233 60.4042H126.775L131.921 51.6669V62.0454H135.149L135.121 46.3901H131.776Z" fill="#FF5A1E"/>
<path d="M153.992 50.0824C153.301 48.876 152.296 47.891 151.091 47.238C149.793 46.5642 148.359 46.2131 146.904 46.2131C145.45 46.2131 144.015 46.5642 142.717 47.238C141.511 47.8902 140.506 48.8753 139.817 50.0824C139.111 51.3375 138.751 52.7657 138.775 54.2145C138.752 55.6686 139.112 57.1023 139.817 58.3641C140.503 59.5773 141.508 60.568 142.717 61.223C144.015 61.8969 145.45 62.248 146.904 62.248C148.359 62.248 149.793 61.8969 151.091 61.223C152.3 60.567 153.304 59.5765 153.992 58.3641C154.696 57.1023 155.056 55.6686 155.033 54.2145C155.056 52.7657 154.696 51.3375 153.992 50.0824ZM150.146 57.7625C149.275 58.6282 148.108 59.1122 146.895 59.1122C145.682 59.1122 144.517 58.6282 143.646 57.7625C142.797 56.8631 142.374 55.6804 142.375 54.2145C142.377 52.7485 142.801 51.5658 143.646 50.6664C144.518 49.8028 145.683 49.3202 146.895 49.3202C148.108 49.3202 149.274 49.8028 150.146 50.6664C151.003 51.5658 151.433 52.7485 151.433 54.2145C151.433 55.6804 151.003 56.8631 150.146 57.7625Z" fill="#FF5A1E"/>
<path d="M87.2349 51.37L93.4198 42.2998H89.0707L84.8925 48.3798L80.7114 42.2998H76.4193L82.661 51.519L75.8843 61.3894H80.1735L84.8925 54.5677L89.6372 61.3894H91.8884V62.0434H91.8913V66.0851H95.0676V58.8195H92.3012L87.2349 51.37Z" fill="#FF5A1E"/>
</g>
<defs>
<clipPath id="clip0_12_103">
<rect width="123.243" height="40" fill="white" transform="translate(32 32)"/>
</clipPath>
</defs>
</svg>
