<svg width="124" height="40" viewBox="0 0 124 40" fill="none" xmlns="http://www.w3.org/2000/svg">
<g clip-path="url(#clip0_119_2204)">
<path d="M19.2688 0C15.4574 0.000577548 11.7317 1.16072 8.56283 3.33375C5.394 5.50677 2.92435 8.59507 1.46616 12.2081C0.00796962 15.8212 -0.373267 19.7968 0.370655 23.6321C1.11457 27.4675 2.95025 30.9904 5.64555 33.7555C8.34084 36.5204 11.7747 38.4034 15.513 39.1661C19.2512 39.9288 23.1259 39.537 26.6472 38.0403C30.1685 36.5437 33.1782 34.0093 35.2957 30.7577C37.4131 27.5062 38.5432 23.6835 38.5432 19.7729C38.5373 14.5302 36.5045 9.50401 32.8911 5.79714C29.2776 2.09026 24.3786 0.00540997 19.2688 0ZM21.5088 27.491C19.5845 29.9941 16.7848 31.6283 13.7044 32.0466C13.7044 32.0466 15.9472 31.1705 18.0762 27.5698C20.1142 23.759 20.2878 20.8797 22.2061 18.4062C25.4479 14.2244 29.6262 15.2144 29.6262 15.2144C29.1451 13.6492 27.7277 12.6855 25.7155 12.776C25.0609 10.6004 22.2289 9.79445 20.2109 10.872C18.7109 11.6692 17.1 12.8256 15.3012 12.7877C15.1006 12.792 14.9001 12.7832 14.7006 12.7614C13.5788 12.584 12.5437 12.0365 11.752 11.2019C11.6267 12.9979 12.7538 14.68 14.0858 15.2407C16.3628 16.1956 17.9709 15.0362 17.9709 15.0362C16.5328 18.9271 13.9455 22.2597 10.5708 24.5679C6.77112 22.6376 4.26646 19.1216 3.73992 14.277C5.00545 10.5163 7.5309 7.33867 10.8665 5.30989C14.2021 3.28113 18.1312 2.53296 21.9543 3.19867C25.7772 3.86439 29.2457 5.90074 31.7422 8.94507C34.2386 11.9894 35.6008 15.844 35.5861 19.8225C35.5861 20.0094 35.5861 20.1934 35.5861 20.3802C34.0173 22.6904 31.903 24.5544 29.441 25.798C26.979 27.0415 24.2498 27.6241 21.5088 27.491Z" fill="#FF5A1E"/>
<path d="M76.5486 21.4249C76.5486 22.9493 76.1691 24.1174 75.4101 24.9293C74.6512 25.7411 73.6369 26.1412 72.3675 26.1295C71.229 26.1295 70.3486 25.7829 69.7263 25.0898C69.104 24.3967 68.7937 23.3562 68.7955 21.9681V14.3901H65.2407V22.4207C65.2407 24.7297 65.827 26.4604 66.9996 27.6129C68.1723 28.7654 69.7766 29.3417 71.8125 29.3417C72.7226 29.3491 73.6253 29.1755 74.4709 28.8307C75.2632 28.5025 75.9734 27.9954 76.5486 27.3472V28.4335C76.5486 30.0358 76.1815 31.2233 75.4472 31.9962C74.7128 32.7691 73.5658 33.1585 72.0061 33.1643C71.162 33.1692 70.3256 32.9993 69.547 32.6649C68.6804 32.3736 67.8759 31.9158 67.1761 31.3158L65.5737 34.0724C66.4901 34.848 67.5576 35.4135 68.7045 35.7311C69.8327 36.1198 71.0152 36.3171 72.2054 36.3152C77.4822 36.3152 80.1206 33.5594 80.1206 28.048V14.3901H76.5486V21.4249Z" fill="#FF5A1E"/>
<path d="M99.7763 14.3901L94.0924 24.1816L88.6619 14.3901H84.9163V30.0455H88.1752V19.6378L93.233 28.4043H94.7756L99.9215 19.667V30.0455H103.149L103.121 14.3901H99.7763Z" fill="#FF5A1E"/>
<path d="M121.991 18.0824C121.301 16.8761 120.296 15.8911 119.091 15.2381C117.792 14.5643 116.359 14.2131 114.904 14.2131C113.45 14.2131 112.015 14.5643 110.717 15.2381C109.511 15.8902 108.506 16.8754 107.817 18.0824C107.111 19.3376 106.751 20.7658 106.775 22.2145C106.752 23.6687 107.112 25.1023 107.817 26.3642C108.503 27.5774 109.508 28.5681 110.717 29.2231C112.015 29.8969 113.45 30.2481 114.904 30.2481C116.359 30.2481 117.792 29.8969 119.091 29.2231C120.299 28.5671 121.304 27.5766 121.991 26.3642C122.696 25.1023 123.056 23.6687 123.032 22.2145C123.056 20.7658 122.696 19.3376 121.991 18.0824ZM118.146 25.7625C117.275 26.6283 116.108 27.1123 114.895 27.1123C113.682 27.1123 112.517 26.6283 111.645 25.7625C110.797 24.8632 110.374 23.6805 110.375 22.2145C110.377 20.7486 110.801 19.5659 111.645 18.6664C112.518 17.8029 113.683 17.3203 114.895 17.3203C116.108 17.3203 117.274 17.8029 118.146 18.6664C119.003 19.5659 119.432 20.7486 119.432 22.2145C119.432 23.6805 119.003 24.8632 118.146 25.7625Z" fill="#FF5A1E"/>
<path d="M55.2349 19.37L61.4198 10.2998H57.0707L52.8926 16.3798L48.7115 10.2998H44.4194L50.6611 19.519L43.8843 29.3894H48.1735L52.8926 22.5677L57.6372 29.3894H59.8885V30.0434H59.8914V34.0851H63.0677V26.8195H60.3012L55.2349 19.37Z" fill="#FF5A1E"/>
</g>
<defs>
<clipPath id="clip0_119_2204">
<rect width="123.243" height="40" fill="white"/>
</clipPath>
</defs>
</svg>
